<?xml version="1.0" encoding="utf-8"?>
<!-- Generator: Adobe Adobe Illustrator 24.2.0, SVG Export Plug-In . SVG Version: 6.00 Build 0)  -->
<svg version="1.1" id="Layer_1" xmlns="http://www.w3.org/2000/svg" xmlns:xlink="http://www.w3.org/1999/xlink" x="0px" y="0px"
	 width="1700px" height="700px" viewBox="0 0 1700 700" style="enable-background:new 0 0 1800 700;" xml:space="preserve">
<style type="text/css">
	.st0{fill:#FFFFFF;}
	.st1{fill:#8c7a1d;}
	.st2{fill:#8c7a1d;}
	.st3{fill:#8c7a1d;}
	.st4{fill:#8c7a1d;}
	.st5{fill:#8c7a1d;}
	.st6{fill:#8c7a1d;}
	.st7{fill:#8c7a1d;}
	.st8{fill:#8c7a1d;}
	.st9{fill:#8c7a1d;}
	.st10{fill:#8c7a1d;}
	.st11{fill:#8c7a1d;}
	.st12{fill:#FDFDFD;}
	.st13{fill:#F9F9F9;}
	.st14{fill:#F5F5F5;}
</style>
<g>
	<g>
		<path class="st0" d="M1263.6,665c-421.5,0-842.55,0-1263.6,0C0,455,0,245,0,35c600,0,1200,0,1800,0c0,210,0,420,0,630
			C1621.35,665,1442.7,665,1263.6,665z M719.25,244.55c-0.12-0.12-0.25-0.24-0.28-0.99c3.83-6.76,7.7-13.49,11.47-20.28
			c3.11-5.62,6.47-11.15,8.96-17.03c0.99-2.33,0.97-6.49-0.49-8.08c-1.74-1.9-5.58-2.76-8.39-2.54c-2.54,0.2-4.94,2.43-7.34,3.86
			c-1.38,0.83-2.53,2.09-3.97,2.76c-10.86,5.01-21.93,9.59-32.64,14.91c-43.21,21.45-88.97,31.13-137.12,30.99
			c-35.42-0.1-70.05-6.04-104.76-12.13c-21.21-3.72-42.61-7.02-64.06-8.53c-30.07-2.11-59.71,3.04-89.25,8.47
			c-33.32,6.12-64.48,17.76-93.9,34.38c-20.95,11.84-42.07,23.36-62.98,35.27c-17.61,10.03-35.04,20.4-52.52,30.65
			c-1.18,0.69-2.17,1.69-3.25,2.54c0.26,0.46,0.53,0.92,0.79,1.38c4.85-2.29,9.8-4.4,14.53-6.91
			c34.81-18.47,69.77-36.65,104.3-55.63c51.82-28.48,108.04-38.89,166.22-41.01c28.21-1.03,55.72,5.17,83.12,11.05
			c44.02,9.45,88.32,14.95,133.43,11.19c29.12-2.42,57.58-7.89,84.5-19.48c14.12-6.08,27.68-13.45,41.72-19.57
			c0.12,0.2,0.24,0.4,0.2,1.21c-4.64,10.49-9.49,20.9-13.8,31.53c-1.42,3.51-1.71,7.57-2.03,11.42c-0.36,4.34,3.34,9.99,7.29,11.49
			c4,1.52,5.96-1.96,8.33-3.96c2.62-2.22,4.91-4.83,7.23-7.38c13.84-15.15,27.08-30.89,41.64-45.32
			c11.88-11.77,25.24-22.05,38.11-32.79c2.46-2.05,5.72-3.16,8.61-4.7c0.38,0.41,0.76,0.82,1.14,1.23
			c-2.12,4.01-4.13,8.09-6.37,12.03c-10.95,19.25-21.04,38.9-27.64,60.11c-3.2,10.28-6.4,20.66-5.04,31.65
			c1.31,10.6,10.75,15.49,19.62,9.77c6.38-4.11,12.38-8.98,17.91-14.2c16.57-15.63,32.79-31.64,49.23-47.41
			c3.16-3.03,6.72-5.65,10.09-8.46c0.38,0.26,0.76,0.51,1.13,0.77c-0.44,2.11-0.86,4.23-1.34,6.34c-1.51,6.7-3.43,13.33-4.51,20.1
			c-3.02,18.99,14.76,27.59,27.55,21.51c4.05-1.93,8.26-3.58,12.1-5.86c17.88-10.6,35.62-21.43,53.5-32.05
			c5.07-3.01,10.41-5.56,16.38-8.72c-1.01,9.98,3.83,16.49,9.33,22.83c6.07,6.99,12.22,13.96,17.64,21.45
			c4.22,5.82,3.18,8.67-3.41,11.32c-7.62,3.06-15.45,5.59-23.2,8.3c-16.65,5.83-33.49,11.24-48.21,21.38
			c-9.77,6.73-17.34,15.24-20.07,27.13c-3.7,16.11,6.5,28.75,22.93,28.77c14.78,0.02,27.86-5.03,39.78-13.32
			c22.28-15.49,39.03-34.86,43.01-62.84c0.59-4.16,2.58-6.85,6.42-8.33c1.81-0.69,3.58-1.5,5.42-2.08
			c34.46-10.82,69.39-19.36,105.52-22.35c37.88-3.14,75.56-1.57,112.76,6.17c42.03,8.74,83.78,18.85,125.82,27.59
			c27.66,5.75,55.49,10.96,83.46,14.84c22.51,3.13,45.32,4.67,68.05,5.55c37.75,1.46,75.54,1.82,113.32,2.61
			c0.97,0.02,1.96-0.34,2.93-0.52c-0.8-1.03-1.49-1.21-2.18-1.26c-16.74-0.99-33.48-1.91-50.22-2.94c-32.01-1.98-64.06-3.49-96-6.21
			c-22.2-1.89-44.49-4.26-66.33-8.55c-38.15-7.49-75.99-16.56-113.93-25.06c-34.46-7.72-68.76-16.24-104.07-19.5
			c-46.55-4.3-92.5-0.91-137.77,10.61c-17.65,4.49-35.07,9.86-51.68,14.57c-6.49-9.36-12.51-18.96-19.46-27.84
			c-8.34-10.66-8.52-14.49,1.05-24.05c1.06-1.06,2.08-2.17,3.25-3.11c7.92-6.4,15.96-12.66,23.77-19.19
			c1.57-1.31,3.07-3.51,3.31-5.45c1.35-10.62-7.82-17.67-17.77-13.89c-1.67,0.63-3.37,1.33-4.85,2.3
			c-11.66,7.62-20.84,17.39-26.45,30.34c-0.77,1.77-2.69,3.38-4.47,4.33c-10.93,5.81-22.15,11.1-32.94,17.16
			c-10.29,5.79-19.97,12.66-30.3,18.37c-7.41,4.09-15.24,7.66-23.26,10.32c-6.77,2.24-10.32-1.31-8.76-8.31
			c1.81-8.13,4.48-16.07,6.92-24.05c1.97-6.42,4.38-12.7,6.19-19.16c1.25-4.45-1.2-7.8-4.66-10.3c-3.36-2.43-5.97-0.09-8.39,1.89
			c-2.32,1.89-4.42,4.05-6.58,6.11c-19.53,18.61-38.95,37.34-58.63,55.78c-6.1,5.72-12.82,10.79-19.44,15.92
			c-1.7,1.32-4.11,1.73-6.2,2.56c-0.47-0.39-0.94-0.77-1.41-1.16c1.83-5.25,3.29-10.68,5.57-15.73
			c10.43-23.13,21.19-46.12,31.6-69.26c2.31-5.14,4.07-10.62,5.3-16.12c1.03-4.6,0.32-9.32-3.7-12.68
			c-3.96-3.31-8.33-2.91-12.61-0.76c-3.73,1.87-7.64,3.62-10.89,6.17c-9.18,7.21-18.45,14.39-26.97,22.33
			C749.71,215.25,734.77,230.2,719.25,244.55z M1270.98,449.76c0,3.74,0.03,7.49-0.01,11.23c-0.08,8.15-0.48,8.59-8.62,9.98
			c-0.26,0.04-0.43,0.62-0.8,1.22c7.95,0,15.58,0,23.21,0c-9.4-3.89-9.4-3.89-9.4-15.01c0-11.68-0.01-23.36,0.01-35.04
			c0-1.06,0.14-2.11,0.22-3.17c0.23-0.02,0.47-0.05,0.7-0.07c8.32,18.02,16.64,36.04,24.96,54.06c0.43-0.02,0.86-0.04,1.29-0.06
			c8.32-18.04,16.64-36.07,24.96-54.11c0.84,13.86,0.85,27.33,0.84,40.81c-0.01,9.45-0.2,9.67-9.07,11.61
			c-0.13,0.03-0.17,0.49-0.31,0.9c9.43,0,18.8,0,28.18,0c-9.77-2.95-9.21-2.15-9.41-13.72c-0.23-13.02-0.11-26.06-0.03-39.08
			c0.06-10.16,1.08-10.33,9.12-11.6c0.12-0.02,0.16-0.5,0.45-1.48c-2.02,0-3.92,0.3-5.69-0.05c-10.12-2.01-15.35,2.06-18.92,11.84
			c-4.94,13.54-11.77,26.38-18.06,40.1c-6.83-14.66-13.87-28.53-19.71-42.87c-2.92-7.17-6.57-10.53-14.36-9.1
			c-2.83,0.52-5.83,0.08-8.75,0.08c9.2,4.52,9.21,4.52,9.21,14.76C1270.99,430.29,1270.98,439.57,1270.98,449.76z M456.57,450.66
			c0-11.08-0.08-22.16,0.04-33.24c0.08-7.25,0.99-8.14,7.96-9.36c0.55-0.1,1.04-0.54,1.55-0.82c-5.36-0.98-10.53-0.81-15.68-1.06
			c-2.58-0.13-3.72,0.89-4.66,3.07c-2.73,6.3-5.62,12.53-8.47,18.77c-4.5,9.84-9.04,19.67-13.83,30.11
			c-8.25-17.73-16.17-34.77-23.85-51.27c-6.59,0-12.74,0-18.9,0c4.75,1.53,9.12,2.61,9.08,8.88c-0.1,16.17-0.05,32.34-0.01,48.52
			c0.01,4.08-2.21,5.94-5.97,6.5c-1.09,0.16-2.17,0.39-3.25,0.59c0.07,0.27,0.15,0.53,0.22,0.8c7.63,0,15.26,0,22.89,0
			c-9.41-3.39-9.42-3.39-9.42-13.72c0-12.13-0.01-24.26,0.01-36.39c0-1.03,0.19-2.05,0.4-4.23c8.84,19.15,17.16,37.17,25.48,55.19
			c0.44-0.05,0.88-0.1,1.32-0.14c8.29-18,16.58-36,24.87-54c0.88,14.39,0.92,28.53,0.87,42.68c-0.03,7.26-0.92,8.17-8.35,9.41
			c-0.42,0.07-0.78,0.56-1.82,1.35c10.25,0,19.6,0,29.14,0c-0.29-0.66-0.35-1.08-0.53-1.14c-0.55-0.17-1.15-0.22-1.73-0.29
			c-5.76-0.76-6.86-1.79-7.22-7.63C456.47,459.35,456.6,455.45,456.57,450.66z M624.17,446.16c0,4.79,0.05,9.57-0.02,14.36
			c-0.12,8.55-0.69,9.17-9.1,10.59c-0.14,0.02-0.21,0.49-0.37,0.92c0.3,0.2,0.62,0.61,0.93,0.6c12.57-0.21,25.19,0.11,37.68-0.96
			c5.36-0.46,11.12-2.91,15.58-6.05c11.39-8.01,14.07-20.03,12.05-33.03c-2.18-14.01-10.46-23.15-24.44-24.82
			c-13.59-1.63-27.45-1.01-41.2-1.33c-0.2,0-0.41,0.6-0.65,0.96c9.48,2.56,9.5,2.56,9.52,12.75
			C624.18,428.51,624.17,436.89,624.17,446.16z M1193.39,451.54c7.13,20.65,29.5,29.12,47.51,17.56
			c12.64-8.11,16.75-20.48,15.37-34.96c-2.16-22.65-26.47-35.99-46.68-25.67C1194.86,415.99,1188.16,433.36,1193.39,451.54z
			 M579.88,404.83c-9.57-0.05-17.87,2.98-24.7,9.87c-17.78,17.91-12.67,48.14,9.89,56.67c12.44,4.7,24.99,3.89,36.99-2.04
			c1.2-0.6,2.37-2.57,2.42-3.95c0.27-6.57,0.2-13.16,0.17-19.75c-0.02-4.16,1.38-7,6.05-7.22c0.46-0.02,0.91-0.46,2.37-1.25
			c-9.69,0-18.21,0-26.73,0c8.26,3.05,8.48,3.26,8.54,9.92c0.05,5.84,0.15,11.68-0.08,17.5c-0.05,1.26-1.12,3.04-2.22,3.62
			c-10.34,5.44-23.31,2.4-29.98-7.17c-7.53-10.81-8.63-22.77-4.82-35.1c3.55-11.51,11.4-17.36,22.61-17.69
			c9.74-0.28,16.57,4.67,21.33,15.44c0.35,0.8,0.97,1.48,1.46,2.22c0.33-0.11,0.67-0.23,1-0.34c-0.58-6.9-1.16-13.8-1.75-20.7
			c-0.38-0.23-0.77-0.47-1.15-0.7c-1.06,6.17-4.36,4.57-7.98,3.46C589.2,406.36,584.89,405.79,579.88,404.83z M880.79,406.26
			c-0.29,0.29-0.58,0.59-0.87,0.88c0.72,0.35,1.4,0.84,2.16,1.03c8.57,2.14,10.74,4.85,10.74,13.59c0,12.88,0.01,25.75-0.01,38.63
			c-0.01,8.67-0.39,9.09-8.92,10.76c-0.15,0.03-0.21,0.5-0.43,1.08c7.76,0,15.37,0,22.98,0c-0.34-0.95-0.79-1.28-1.27-1.35
			c-7.06-1-7.84-1.79-7.91-8.71c-0.07-7.64-0.03-15.27-0.03-22.91c0-5.89,0-11.78,0-18.81c15.24,18.55,29.69,36.15,44.13,53.74
			c0.47-0.28,0.93-0.56,1.4-0.84c0-1.45,0-2.9,0-4.35c0-15.72,0-31.44,0-47.17c0-11.09,0-11.09,10.63-15.08c-9,0-16.68,0-24.37,0
			c9.46,3.84,9.46,3.84,9.46,14.65c0,10.03,0.01,20.06-0.01,30.1c0,1.07-0.18,2.14-0.35,3.95c-1.22-1.38-1.92-2.11-2.55-2.89
			c-9.19-11.25-18.36-22.51-27.56-33.75c-3.41-4.17-6.11-9.89-10.53-11.98C893.07,404.74,886.92,406.29,880.79,406.26z
			 M868.71,406.25c-15.58,0-31.15,0-46.73,0c0.26,1.27,0.57,1.71,0.9,1.72c7.55,0.24,8.62,2.18,8.62,10.44
			c0.01,13.63,0.01,27.25,0,40.88c-0.01,9.56-0.01,9.55-9.16,11.88c-0.17,0.04-0.25,0.46-0.67,1.28c1.75,0.09,3.28,0.23,4.8,0.23
			c13.95,0.02,27.89-0.13,41.83,0.11c3.75,0.06,5.68-0.89,6.54-4.67c0.91-3.98,2.46-7.81,3.73-11.7c-0.41-0.17-0.83-0.34-1.24-0.52
			c-1.46,2.18-2.89,4.38-4.38,6.54c-2.7,3.93-6.36,6.35-11.2,6.49c-5.39,0.15-10.79,0.07-16.19,0.1c-2.93,0.02-4.59-1.47-4.62-4.32
			c-0.09-8.18-0.03-16.36-0.03-25.01c5.01,0,9.62-0.11,14.23,0.03c7.57,0.23,8.75,1.29,10.64,8.7c0.11,0.45,0.57,0.81,1.4,1.94
			c0-8.52,0-16.1,0-23.69c-1.27,1.39-1.36,3.13-2.22,4.3c-1.32,1.8-3.08,4.4-4.83,4.56c-6.34,0.55-12.76,0.22-19.02,0.22
			c0-8.72,0-17.17,0-25.79c7.04,0,13.78-0.16,20.51,0.05c5.79,0.18,7.91,2.11,9.61,7.62c0.36,1.17,1.06,2.23,1.61,3.34
			c0.38-0.14,0.75-0.27,1.13-0.41c-0.3-4.7-0.6-9.41-0.9-14.3C871.63,406.25,870.59,406.25,868.71,406.25z M1111.47,461.82
			c-1.15,4.12-3.98,6.64-7.92,7.85c-9.72,2.98-20.56-2.96-23.45-12.74c-0.56-1.88-1.02-3.79-1.53-5.68
			c-0.37,0.07-0.74,0.15-1.11,0.22c0,7.57,0,15.14,0,23.13c3.8-4.66,3.71-4.22,9.97-2.91c5.75,1.2,11.84,2.31,17.57,1.65
			c7.89-0.9,13.31-6.15,15.07-14.06c1.71-7.7-1.59-13.73-7.81-18.22c-2.42-1.74-5.07-3.17-7.62-4.72
			c-5.24-3.18-10.58-6.19-15.69-9.55c-3.83-2.52-5.61-6.22-4.23-10.85c1.15-3.86,5.53-6.84,10.04-7.1
			c8.93-0.51,16.41,5.26,18.54,14.29c0.37,1.59,0.79,3.16,1.19,4.74c0.36-0.08,0.72-0.16,1.08-0.24c0-7.59,0-15.17,0-23.41
			c-3.67,4.81-3.67,4.81-9.23,2.89c-1.41-0.49-2.81-1.05-4.26-1.38c-7.36-1.66-14.32-1.16-20.17,4.25
			c-8.3,7.67-7.36,19.45,2.56,26.54c6.18,4.42,13.01,7.93,19.5,11.93C1108.66,451.34,1112.25,454.96,1111.47,461.82z M1380.66,412.9
			c-5.69,13.31-11.22,26.69-17.15,39.89c-3.23,7.18-4.3,16.07-13.48,19.45c6.88,0,13.77,0,20.65,0c-0.75-1.13-1.61-1.42-2.5-1.65
			c-4.96-1.24-5.78-2.77-4.08-7.72c4.27-12.48,4.27-12.48,17.12-12.48c1.05,0,2.1,0,3.15,0c11.04,0,11.04,0,14.96,10.39
			c2.73,7.21,2.41,7.87-4.9,10.46c-0.13,0.04-0.1,0.53-0.16,0.94c8.72,0,17.4,0,26.08,0c-8.29-1.98-9.98-9.13-12.61-15.32
			c-6.76-15.93-13.37-31.93-20.07-47.9c-0.64-1.53-1.5-2.97-2.76-5.42C1383.26,407.19,1382.1,409.73,1380.66,412.9z M967.41,467.45
			c1.89-5.44,2.91-11.5,6.09-16.04c1.37-1.95,7.24-0.79,11.07-0.99c1.64-0.08,3.3-0.01,4.95-0.01c9.57,0,9.57,0,13.19,8.96
			c3.47,8.58,3.47,8.58-4.37,12.08c-0.07,0.03-0.05,0.26-0.15,0.83c8.75,0,17.43,0,26.12,0c-9.78-2.7-10.81-11.72-13.96-18.94
			c-6.39-14.63-12.4-29.42-18.58-44.13c-0.66-1.57-1.45-3.08-2.68-5.68c-1.24,2.46-2.01,3.83-2.62,5.26
			c-6.54,15.21-12.96,30.48-19.62,45.64c-2.95,6.72-4.26,14.8-12.82,17.87c6.88,0,13.77,0,21.67,0
			C972.36,470.57,970,469.37,967.41,467.45z M721.33,450.4c10.45,0,10.45,0,14.08,8.97c3.47,8.58,3.47,8.58-4.37,12.07
			c-0.07,0.03-0.05,0.26-0.15,0.83c8.75,0,17.43,0,26.11,0c-9.77-2.68-10.8-11.7-13.94-18.91c-6.38-14.62-12.39-29.4-18.58-44.11
			c-0.66-1.57-1.43-3.1-2.66-5.73c-1.25,2.44-2.04,3.78-2.65,5.2c-7.23,16.85-14.44,33.72-21.66,50.58
			c-2.23,5.22-4.38,10.51-10.73,12.11c-0.05,0.01,0.02,0.53,0.03,0.71c6.88,0,13.73,0,20.58,0c-0.6-1.08-1.25-1.26-1.91-1.41
			c-5.79-1.34-6.56-2.78-4.43-8.5c0.88-2.37,2.11-4.64,2.83-7.05c1.09-3.66,3.06-5.36,7.11-4.83
			C714.1,450.72,717.29,450.4,721.33,450.4z M494.79,424.25c-5.11,11.93-10.2,23.88-15.36,35.79c-2.14,4.94-4.33,9.92-10.42,11.28
			c-0.06,0.01-0.01,0.53,0,0.82c6.86,0,13.72,0,20.58,0c-1.42-1.28-3.24-1.29-4.37-2.18c-1.3-1.02-3.07-3.14-2.75-4.22
			c1.48-4.98,2.87-10.31,5.86-14.35c1.31-1.77,6.4-0.8,9.77-0.97c2.09-0.11,4.2-0.02,6.3-0.02c9.58,0,9.58,0,13.2,8.95
			c3.48,8.6,3.48,8.6-4.37,12.08c-0.07,0.03-0.05,0.26-0.15,0.83c8.75,0,17.44,0,26.12,0c-9.78-2.7-10.82-11.72-13.97-18.94
			c-6.39-14.63-12.4-29.43-18.58-44.15c-0.66-1.56-1.45-3.07-2.81-5.93C500.52,410.89,497.77,417.25,494.79,424.25z M1137.06,436.13
			c0.74,3.85-0.79,6.57-4.06,8.59c-1.39,0.86-2.74,1.93-3.75,3.19c-1.21,1.53-2.03,3.37-3.03,5.08c0.39,0.29,0.78,0.58,1.17,0.87
			c2.97-2.31,5.95-4.61,9.65-7.49c0,5.44,0.04,9.87-0.01,14.31c-0.1,8.51-0.38,8.81-8.79,10.3c-0.24,0.04-0.37,0.67-0.75,1.4
			c17.39,0,34.46,0,51.76,0c1.77-5.89,3.53-11.73,5.28-17.56c-0.43-0.18-0.86-0.36-1.29-0.54c-0.66,1.37-1.29,2.75-2,4.1
			c-2.69,5.14-6.35,9.27-12.51,9.67c-5.67,0.37-11.38,0.15-17.07,0.16c-3.58,0.01-5.1-1.92-5.07-5.38
			c0.04-4.19,0.49-8.45-0.12-12.55c-1.28-8.58,1.33-14.92,8.85-19.5c1.45-0.88,1.85-3.48,2.73-5.29c-0.39-0.16-0.77-0.33-1.16-0.49
			c-3.29,2.63-6.58,5.26-10.29,8.23c0-6.48-0.08-12.16,0.02-17.84c0.09-4.84,1.89-6.68,6.71-7.22c1.31-0.15,2.62-0.29,3.93-0.44
			c-0.05-0.31-0.1-0.61-0.15-0.92c-9.78,0-19.56,0-29.34,0c0.59,1.05,1.24,1.21,1.89,1.29c6.07,0.74,7.17,1.81,7.3,7.87
			C1137.12,422.39,1137.05,428.83,1137.06,436.13z M816.25,454.78c-0.92,1.19-2.06,2.27-2.73,3.59c-3.3,6.4-8.19,10.13-15.68,9.93
			c-4.34-0.11-8.7-0.13-13.04,0.03c-4,0.15-5.91-1.74-5.92-5.55c-0.03-15.87-0.01-31.73,0.05-47.6c0.02-4.11,2.41-6.21,6.34-6.8
			c1.57-0.23,3.12-0.54,4.68-0.82c-0.07-0.31-0.14-0.61-0.21-0.92c-9.96,0-19.91,0-29.87,0c-0.02,0.98,0.36,1.29,0.74,1.3
			c8.31,0.14,8.79,3.72,8.79,10.89c0.01,13.62,0.02,27.25,0,40.87c-0.01,9.22-0.43,9.71-9.25,11.48c-0.15,0.03-0.21,0.48-0.47,1.11
			c17.25,0,34.33,0,51.74,0C813.13,466.78,814.87,461.1,816.25,454.78z M643.7,557.05c3.23-7.37,6.46-14.75,9.69-22.12
			c0.2,0.11,0.41,0.22,0.61,0.32c0,12.38,0,24.76,0,37.07c-2.79,0.37-5.38,0.71-9.01,1.19c4.22,3.25,14.27,3.22,17.73,0.47
			c-1.88-0.71-3.43-1.3-5.1-1.94c0-12.32,0-24.69,0-36.87c1.54-0.77,2.84-1.43,4.58-2.31c-6.11-3.52-10.44-2.32-12.71,2.88
			c-3.25,7.44-6.5,14.89-10.02,22.94c-3.88-8.75-7.41-16.8-11.01-24.83c-1.67-3.71-8.49-4.11-11.18-0.48
			c1.34,0.6,2.62,1.18,3.78,1.7c0,12.55,0,24.92,0,36.93c-1.79,0.78-3.25,1.42-5.25,2.29c4.95,2.68,14.66,2.24,17.33-0.94
			c-3.03-0.37-5.58-0.67-8.25-1c0-12.34,0-24.77,0-38.32c1.05,2.16,1.65,3.3,2.16,4.47c3.12,7.11,6.16,14.25,9.4,21.3
			c0.51,1.12,2.01,2.67,2.83,2.55c1.21-0.18,2.29-1.61,3.28-2.66C643.04,559.22,643.19,558.4,643.7,557.05z M742.11,558.01
			c-2.84-2.72-5.68-5.45-8.94-8.58c6.35-5.45,13.11-11.27,19.81-17.02c-2.74-2.15-10.52-2-13.5,0.98c1.76,0.6,3.26,1.11,5.12,1.74
			c-7.02,6.23-13.74,12.19-21,18.62c0-6.97,0-12.99,0-18.76c2.78-0.51,5.27-0.97,7.75-1.43c-3.94-3.28-15.14-2.98-18.33-0.09
			c2.51,0.55,4.53,0.99,6.65,1.45c0,12.4,0,25.01,0,37.25c-2.31,0.59-4.27,1.08-6.95,1.76c4.49,3.07,16.33,2.72,18.88-0.47
			c-2.91-0.42-5.41-0.78-8.26-1.19c0-3.29,0.35-6.6-0.08-9.8c-0.67-4.94,2.91-7.22,6.05-8.9c1.37-0.74,5.41,1.14,6.65,2.92
			c3.7,5.3,6.77,11.07,9.78,16.81c1.83,3.48,6.56,4.08,10.03,0.01c-8.62,0.88-8.52-6.17-11.1-10.86
			C743.97,561.13,743.21,559.85,742.11,558.01z M1100.44,538.78c0-1.31,0-2.61,0-3.79c2.96-0.48,5.47-0.88,7.99-1.28
			c-3.83-3.61-15.57-3.2-18.04,0c2.37,0.44,4.42,0.81,6.44,1.19c0,12.61,0,25.11,0,37.32c-2.26,0.54-4.24,1.01-6.86,1.63
			c4,3.09,15.94,2.89,18.85-0.34c-2.98-0.45-5.47-0.83-8.38-1.27c0-3.18,0.37-6.5-0.09-9.69c-0.72-4.96,2.85-7.26,5.99-8.95
			c1.39-0.75,5.41,1.07,6.66,2.84c3.64,5.16,6.69,10.77,9.59,16.41c1.96,3.81,6.57,4.66,9.77,1.11c-0.65-0.37-1.3-1.09-1.82-1
			c-4.45,0.7-5.33-2.46-6.57-5.58c-2.83-7.1-6.24-13.81-14.47-17.17c7.16-6.3,13.77-12.13,20.35-17.91c-1.96-1.93-9.75-2-13.45,0.98
			c1.88,0.68,3.38,1.22,5.25,1.89c-6.88,6.11-13.61,12.09-21.21,18.85C1100.44,548.5,1100.44,544.09,1100.44,538.78z M864.23,561.77
			c6.66-0.25,13.33-0.54,19.99-0.67c0.64-0.01,1.61,0.85,1.89,1.52c1.28,3.15,2.37,6.37,3.73,10.12c-2.17,0-3.83-0.22-5.39,0.08
			c-0.92,0.18-1.68,1.19-2.51,1.83c0.83,0.46,1.65,1.29,2.5,1.33c3.74,0.14,7.49,0.13,11.23-0.01c0.83-0.03,1.63-0.8,3.84-1.97
			c-8.01-0.79-7.94-6.61-9.67-10.97c-3.8-9.55-7.31-19.22-11.02-28.81c-0.44-1.13-1.39-2.91-2.15-2.94
			c-5.37-0.19-10.76-0.03-16.13,0.15c-0.44,0.01-0.84,0.99-2.02,2.48c4.49,0.34,8.07,0.61,11.99,0.91
			c-0.36,1.17-0.65,2.29-1.04,3.37c-3.07,8.4-6.02,16.85-9.31,25.15c-1.67,4.21-1.57,9.91-8.32,10.39
			c2.93,3.08,13.53,3.15,17.3-0.15c-3.3-0.51-5.91-0.9-8.77-1.34C861.58,568.92,862.77,565.72,864.23,561.77z M1171.88,572.32
			c-1.62,0.14-3.29,0.09-4.85,0.49c-0.93,0.24-1.67,1.21-2.5,1.85c0.84,0.46,1.66,1.28,2.52,1.31c3.74,0.14,7.49,0.13,11.23-0.01
			c0.82-0.03,1.62-0.81,2.43-1.24c0.25-0.36,0.49-0.73,0.74-1.09c-7.73-0.17-7.17-6.35-9.01-10.63c-2.69-6.3-4.94-12.79-7.38-19.19
			c-5.19-13.63-5.19-13.65-19.75-12.66c-1.2,0.08-2.35,0.82-3.52,1.26c0.07,0.53,0.14,1.06,0.21,1.58
			c3.59,0.27,7.17,0.53,11.03,0.82c-0.3,1.04-0.52,2.03-0.87,2.97c-3.07,8.4-6.03,16.84-9.32,25.16
			c-1.72,4.34-1.58,10.18-8.41,10.86c2.96,3.02,13.58,3.06,17.24-0.25c-3.29-0.49-5.89-0.88-8.49-1.27
			c3.15-11.28,3.15-11.28,14.32-11.28C1168.5,561.01,1168.5,561.01,1171.88,572.32z M670.48,532.41c1.24,0.7,2.41,1.82,3.72,2.01
			c2.29,0.33,4.67,0.09,6.97,0.09c0.08,0.74,0.21,1.07,0.12,1.32c-3.12,8.54-6.01,17.17-9.49,25.56c-1.98,4.78-1.4,11.49-9.08,12.53
			c3.52,3.01,14.1,2.85,17.14-0.41c-3.1-0.46-5.71-0.84-8.5-1.25c1.11-3.07,1.92-5.97,3.23-8.6c0.58-1.15,2.18-2.46,3.38-2.52
			c5.38-0.27,10.78-0.19,16.17-0.05c0.99,0.02,2.51,0.65,2.85,1.41c1.41,3.17,2.46,6.49,3.67,9.85c-3.03,0.4-5.45,0.72-8.95,1.17
			c4.39,3.47,14.97,3.2,17.61,0.01c-6.18,0.12-6.4-4.85-7.86-8.63c-3.94-10.14-7.66-20.37-11.58-30.51
			c-0.47-1.23-1.63-3.1-2.49-3.11C681.9,531.18,676.4,531.53,670.48,532.41z M1026.12,557.39c4.4,4.58,4.49,9.31,0.27,13.25
			c-6.54,6.09-21.93,3.92-23.3-5.57c-0.12-0.83-1-1.55-1.63-2.48c-2.36,3.68-2.22,10.59,0.21,13.54c0.74-1.09,1.43-2.1,2.12-3.1
			c6.69,4.31,13.99,5.39,20.1,3.02c6.87-2.66,10.45-9.28,8.32-15.79c-1.91-5.84-7.01-7.24-12.24-8.43
			c-3.62-0.82-7.41-1.34-10.76-2.83c-5.04-2.23-5.89-7.93-2.26-11.9c5.48-5.98,19.66-4.39,20.88,4.36c0.12,0.82,0.95,1.55,1.45,2.32
			c0.38-0.09,0.76-0.18,1.14-0.26c0-4.07,0-8.14,0-12.21c-0.34-0.07-0.68-0.14-1.03-0.21c-0.75,0.89-1.5,1.78-1.99,2.36
			c-2.58-1.05-4.84-2.28-7.26-2.88c-8.05-2.01-16.58,2.25-18.31,8.95c-1.9,7.36,2,11.96,12.05,14.39
			C1017.75,554.85,1021.6,556,1026.12,557.39z M929.15,531.1c-7,0-13.99,0-20.49,0c0,5.26,0,10.09,0,14.92
			c0.69,0.03,1.38,0.05,2.07,0.08c0.19-3.77,0.38-7.53,0.56-11.15c7.09,0,13.82,0,21.02,0c-8.26,11.57-16.24,22.57-23.99,33.73
			c-1.34,1.93-1.71,4.54-2.64,7.15c11.29,0,21.4,0,31.87,0c0-4.54,0.12-8.85-0.09-13.15c-0.05-1.04-1.17-2.03-1.8-3.05
			c-0.5,1.1-1.36,2.17-1.43,3.29c-0.2,3.21-0.07,6.45-0.07,9.43c-8.41,0-16.22,0-24.53,0c8.3-11.64,16.34-22.77,24.16-34.03
			c1.29-1.86,1.67-4.35,2.72-7.22C933.56,531.1,931.79,531.1,929.15,531.1z M1071.92,576.06c1.39-0.32,2.77-0.63,4.16-0.95
			c-0.02-0.59-0.03-1.17-0.05-1.76c-3.35-0.34-6.71-0.68-10.17-1.03c0-12.51,0-25.01,0-37.58c4.36,0,8.49,0,13,0
			c0,3.63-0.1,7.05,0.07,10.45c0.04,0.81,0.96,1.57,1.47,2.35c0.52-0.76,1.48-1.52,1.5-2.29c0.14-4.62,0.07-9.25,0.07-13.84
			c-12.2,0-24.1,0-36.31,0c0.9,5.56-1.16,11.13,1.19,16.16c0.64-0.01,1.28-0.02,1.93-0.03c0.26-4.29,0.52-8.58,0.77-12.81
			c4.3,0,8.29,0,12.4,0c0,12.7,0,25.18,0,37.95c-2.31,0-4.42-0.22-6.44,0.08c-1.22,0.18-2.31,1.18-3.47,1.82
			c1.11,0.49,2.21,1.37,3.34,1.41C1060.62,576.15,1065.87,576.06,1071.92,576.06z M980.05,542.34c2.72-3.36,5.44-6.73,8.23-10.18
			c-0.96-0.85-9.82-1.93-11.19-0.59c-0.41,0.4-0.34,2.12,0.06,2.38c0.94,0.6,2.21,0.67,3.73,1.06c-3.73,5.76-7.36,11.37-11.28,17.42
			c-3.98-5.99-7.73-11.65-11.44-17.23c1.87-0.77,3.36-1.38,5.29-2.17c-4.06-2.67-10.84-2.54-13.58-0.23
			c14.25,11.68,19.72,23.98,17.5,39.9c-1.69,0-3.46-0.12-5.2,0.04c-1.6,0.14-3.16,0.59-5.29,1.02c3.77,3.27,22.39,3.05,25.34-0.44
			c-3.98-0.35-7.37-0.65-10.59-0.94c-1.52-9.97-0.79-19.19,6.33-26.89C978.64,544.72,979.1,543.74,980.05,542.34z M824.59,534.49
			c3.97,0,7.95,0,12.06,0c0,9.37,0.1,18.04-0.03,26.71c-0.12,7.94-5.01,13.09-11.9,12.83c-7.43-0.27-11.06-4.45-11.17-12.65
			c-0.02-1.78-0.54-3.54-0.82-5.32c-2.84,3.08-3.23,12.86-1.73,14.7c4.23,5.19,13.21,7.82,19.19,5.62
			c6.38-2.35,9.65-7.56,9.68-15.54c0.03-8.64,0.01-17.28,0.01-25.88c3.51-0.42,6.68-0.8,10.51-1.26c-0.98-1.39-1.22-2.03-1.47-2.04
			c-8.5-0.17-17.02-0.63-25.49-0.2C820.68,531.61,821.93,533.59,824.59,534.49z M793.38,572.81c-3.67,0-7.33,0-10.96,0
			c0-13.17,0-25.65,0-37.96c4.37-1.19,9.03,1.17,13.21-1.88c-3.74-2.74-27.13-2.55-30.95,1c5.29,0.32,9.52,0.57,13.84,0.83
			c0,12.63,0,25.08,0,37.52c-4.43,0.33-8.62,0.65-12.8,0.96c-0.13,0.6-0.27,1.2-0.4,1.8c0.54,0.25,1.07,0.72,1.61,0.73
			c8.82,0.1,17.65,0.25,26.47,0.11C795.28,575.9,796.09,574.56,793.38,572.81z M922.69,525.72c1.04-1.43,2.45-2.74,2.95-4.34
			c0.22-0.7-1.5-2.89-2.17-2.82c-1.79,0.2-4.45,0.8-5.03,2.05C917.13,523.46,918.79,525.41,922.69,525.72z"/>
		<path class="st1" d="M707.11,219.16c-13.81,6.78-27.37,14.15-41.49,20.23c-26.92,11.59-55.38,17.05-84.5,19.48
			c-45.12,3.76-89.41-1.74-133.43-11.19c-27.4-5.88-54.91-12.08-83.12-11.05c-58.18,2.13-114.4,12.54-166.22,41.01
			c-34.53,18.97-69.49,37.16-104.3,55.63c-4.73,2.51-9.68,4.62-14.53,6.91c-0.26-0.46-0.53-0.92-0.79-1.38
			c1.08-0.86,2.07-1.86,3.25-2.54c17.49-10.26,34.91-20.62,52.52-30.65c20.91-11.91,42.03-23.43,62.98-35.27
			c29.42-16.62,60.58-28.26,93.9-34.38c29.54-5.43,59.18-10.58,89.25-8.47c21.45,1.51,42.85,4.8,64.06,8.53
			c34.71,6.1,69.33,12.03,104.76,12.13c48.15,0.14,93.91-9.53,137.12-30.99c10.71-5.32,21.78-9.9,32.64-14.91
			c1.44-0.66,2.59-1.93,3.97-2.76c2.4-1.43,4.8-3.66,7.34-3.86c2.81-0.22,6.65,0.64,8.39,2.54c1.46,1.59,1.48,5.75,0.49,8.08
			c-2.49,5.89-5.85,11.42-8.96,17.03c-3.77,6.79-7.64,13.52-11.74,20.73c-0.34,0.93-0.4,1.41-0.54,2.45c0.75-0.8,1.1-1.17,1.45-1.54
			c15.15-14.72,30.09-29.67,45.54-44.08c8.52-7.95,17.79-15.12,26.97-22.33c3.25-2.55,7.16-4.3,10.89-6.17
			c4.28-2.15,8.65-2.55,12.61,0.76c4.02,3.36,4.73,8.08,3.7,12.68c-1.23,5.5-2.99,10.98-5.3,16.12
			c-10.4,23.15-21.17,46.13-31.6,69.26c-2.28,5.05-3.73,10.48-5.57,15.73c0.47,0.39,0.94,0.77,1.41,1.16
			c2.09-0.83,4.5-1.24,6.2-2.56c6.62-5.13,13.34-10.21,19.44-15.92c19.68-18.45,39.1-37.17,58.63-55.78
			c2.17-2.07,4.27-4.22,6.58-6.11c2.42-1.98,5.03-4.32,8.39-1.89c3.46,2.5,5.91,5.85,4.66,10.3c-1.81,6.46-4.22,12.74-6.19,19.16
			c-2.45,7.98-5.11,15.92-6.92,24.05c-1.56,7,1.99,10.55,8.76,8.31c8.02-2.65,15.85-6.23,23.26-10.32
			c10.33-5.71,20.01-12.59,30.3-18.37c10.79-6.06,22.01-11.35,32.94-17.16c1.78-0.95,3.7-2.56,4.47-4.33
			c5.61-12.95,14.79-22.72,26.45-30.34c1.49-0.97,3.18-1.67,4.85-2.3c9.95-3.78,19.12,3.28,17.77,13.89
			c-0.25,1.95-1.75,4.14-3.31,5.45c-7.81,6.53-15.84,12.8-23.77,19.19c-1.16,0.94-2.19,2.05-3.25,3.11
			c-9.57,9.56-9.39,13.39-1.05,24.05c6.95,8.88,12.97,18.48,19.46,27.84c16.61-4.71,34.04-10.08,51.68-14.57
			c45.28-11.51,91.23-14.91,137.77-10.61c35.31,3.26,69.61,11.78,104.07,19.5c37.95,8.5,75.79,17.57,113.93,25.06
			c21.83,4.28,44.12,6.66,66.33,8.55c31.95,2.72,63.99,4.23,96,6.21c16.74,1.03,33.48,1.95,50.22,2.94c0.7,0.04,1.39,0.22,2.18,1.26
			c-0.98,0.18-1.96,0.54-2.93,0.52c-37.77-0.79-75.57-1.16-113.32-2.61c-22.73-0.88-45.54-2.42-68.05-5.55
			c-27.97-3.88-55.8-9.09-83.46-14.84c-42.04-8.74-83.78-18.85-125.82-27.59c-37.2-7.74-74.88-9.3-112.76-6.17
			c-36.13,2.99-71.07,11.53-105.52,22.35c-1.84,0.58-3.61,1.39-5.42,2.08c-3.84,1.47-5.83,4.16-6.42,8.33
			c-3.98,27.98-20.72,47.35-43.01,62.84c-11.93,8.29-25,13.35-39.78,13.32c-16.42-0.02-26.63-12.66-22.93-28.77
			c2.73-11.89,10.3-20.4,20.07-27.13c14.71-10.14,31.56-15.55,48.21-21.38c7.75-2.71,15.59-5.24,23.2-8.3
			c6.59-2.65,7.62-5.51,3.41-11.32c-5.42-7.48-11.57-14.46-17.64-21.45c-5.51-6.34-10.34-12.85-9.33-22.83
			c-5.97,3.16-11.31,5.71-16.38,8.72c-17.87,10.61-35.61,21.45-53.5,32.05c-3.84,2.28-8.05,3.93-12.1,5.86
			c-12.78,6.09-30.57-2.51-27.55-21.51c1.08-6.77,2.99-13.4,4.51-20.1c0.48-2.11,0.89-4.22,1.34-6.34
			c-0.38-0.26-0.76-0.51-1.13-0.77c-3.37,2.81-6.93,5.43-10.09,8.46c-16.44,15.77-32.66,31.77-49.23,47.41
			c-5.53,5.21-11.53,10.09-17.91,14.2c-8.88,5.72-18.31,0.83-19.62-9.77c-1.36-10.99,1.84-21.38,5.04-31.65
			c6.6-21.22,16.69-40.87,27.64-60.11c2.24-3.94,4.25-8.02,6.37-12.03c-0.38-0.41-0.76-0.82-1.14-1.23
			c-2.89,1.54-6.15,2.65-8.61,4.7c-12.87,10.74-26.24,21.02-38.11,32.79c-14.56,14.42-27.8,30.17-41.64,45.32
			c-2.32,2.54-4.61,5.16-7.23,7.38c-2.36,2-4.33,5.49-8.33,3.96c-3.95-1.5-7.65-7.15-7.29-11.49c0.32-3.85,0.61-7.91,2.03-11.42
			c4.31-10.63,9.16-21.04,14.09-31.96c0.36-0.74,0.42-1.05,0.72-1.45c0.22-0.32,0.21-0.55,0.19-0.79c-0.34,0.11-0.69,0.21-1.13,0.39
			C707.35,218.92,707.22,219.03,707.11,219.16z M909.28,332.4c-1.48,3.08-3.41,6.03-4.35,9.26c-3.37,11.52,1.3,19.64,11.82,20.35
			c4.72,0.32,9.81,0.42,14.22-0.99c32.23-10.3,54-31.49,64.79-63.65c0.57-1.7,0.41-3.65,0.66-6.21c-3.2,0.6-5.75,0.77-8.09,1.56
			c-15.27,5.16-30.71,9.92-45.67,15.88C929.97,313.66,918.24,320.69,909.28,332.4z"/>
		<path class="st2" d="M1270.98,449.31c0-9.73,0-19.02,0-28.3c-0.01-10.24-0.01-10.24-9.21-14.76c2.92,0,5.92,0.44,8.75-0.08
			c7.8-1.43,11.44,1.93,14.36,9.1c5.85,14.35,12.89,28.21,19.71,42.87c6.29-13.72,13.12-26.56,18.06-40.1
			c3.57-9.78,8.79-13.85,18.92-11.84c1.77,0.35,3.68,0.05,5.69,0.05c-0.29,0.98-0.33,1.46-0.45,1.48c-8.05,1.27-9.06,1.44-9.12,11.6
			c-0.08,13.03-0.2,26.06,0.03,39.08c0.2,11.56-0.36,10.77,9.41,13.72c-9.37,0-18.74,0-28.18,0c0.13-0.41,0.17-0.87,0.31-0.9
			c8.87-1.94,9.06-2.16,9.07-11.61c0.01-13.48,0-26.95-0.84-40.81c-8.32,18.04-16.64,36.07-24.96,54.11
			c-0.43,0.02-0.86,0.04-1.29,0.06c-8.32-18.02-16.64-36.04-24.96-54.06c-0.23,0.02-0.47,0.05-0.7,0.07
			c-0.08,1.05-0.22,2.11-0.22,3.17c-0.02,11.68-0.01,23.36-0.01,35.04c0,11.12,0,11.12,9.4,15.01c-7.63,0-15.26,0-23.21,0
			c0.38-0.6,0.55-1.18,0.8-1.22c8.14-1.4,8.53-1.83,8.62-9.98C1271.01,457.24,1270.98,453.5,1270.98,449.31z"/>
		<path class="st2" d="M456.57,451.1c0.03,4.34-0.1,8.24,0.14,12.12c0.36,5.84,1.46,6.87,7.22,7.63c0.58,0.08,1.17,0.12,1.73,0.29
			c0.17,0.05,0.23,0.47,0.53,1.14c-9.54,0-18.9,0-29.14,0c1.04-0.79,1.4-1.28,1.82-1.35c7.43-1.24,8.33-2.15,8.35-9.41
			c0.05-14.14,0.02-28.29-0.87-42.68c-8.29,18-16.58,36-24.87,54c-0.44,0.05-0.88,0.1-1.32,0.14
			c-8.32-18.02-16.64-36.04-25.48-55.19c-0.21,2.17-0.4,3.2-0.4,4.23c-0.02,12.13-0.02,24.26-0.01,36.39
			c0,10.33,0.01,10.33,9.42,13.72c-7.63,0-15.26,0-22.89,0c-0.07-0.27-0.15-0.53-0.22-0.8c1.08-0.2,2.16-0.43,3.25-0.59
			c3.75-0.56,5.98-2.42,5.97-6.5c-0.04-16.17-0.09-32.34,0.01-48.52c0.04-6.27-4.32-7.35-9.08-8.88c6.16,0,12.31,0,18.9,0
			c7.68,16.5,15.61,33.54,23.85,51.27c4.8-10.44,9.33-20.27,13.83-30.11c2.86-6.24,5.75-12.47,8.47-18.77
			c0.94-2.18,2.08-3.2,4.66-3.07c5.15,0.25,10.31,0.07,15.68,1.06c-0.52,0.28-1,0.73-1.55,0.82c-6.97,1.22-7.88,2.12-7.96,9.36
			C456.49,428.49,456.57,439.57,456.57,451.1z"/>
		<path class="st1" d="M624.17,445.71c0-8.82,0.02-17.2,0-25.57c-0.03-10.19-0.04-10.19-9.52-12.75c0.23-0.36,0.45-0.96,0.65-0.96
			c13.74,0.32,27.61-0.29,41.2,1.33c13.99,1.68,22.26,10.81,24.44,24.82c2.02,13-0.66,25.02-12.05,33.03
			c-4.46,3.14-10.22,5.59-15.58,6.05c-12.5,1.07-25.11,0.75-37.68,0.96c-0.31,0.01-0.63-0.4-0.93-0.6c0.17-0.43,0.23-0.9,0.37-0.92
			c8.41-1.42,8.98-2.04,9.1-10.59C624.22,455.73,624.16,450.95,624.17,445.71z M633.6,452.45c0,5.07,0,10.13,0,15.11
			c14.93,3.74,26.06,0.01,32.49-10.68c6.69-11.11,5.36-28.95-2.84-38.42c-6.59-7.61-19.48-10.76-29.66-6.34
			C633.6,425.22,633.6,438.39,633.6,452.45z"/>
		<path class="st3" d="M1193.32,451.19c-5.16-17.82,1.53-35.2,16.26-42.71c20.21-10.32,44.52,3.02,46.68,25.67
			c1.38,14.48-2.73,26.85-15.37,34.96C1222.89,480.66,1200.52,472.2,1193.32,451.19z M1203.37,430.47
			c-0.86,9.15-0.87,18.21,2.63,26.95c3.4,8.48,9.87,13.35,17.89,13.3c8.37-0.04,16-5.22,18.79-13.55
			c4.14-12.34,3.84-24.82-0.96-36.89c-3.1-7.8-9.35-11.86-17.91-11.83c-8.66,0.03-14.33,4.59-17.64,12.23
			C1204.92,423.54,1204.36,426.68,1203.37,430.47z"/>
		<path class="st4" d="M580.28,404.87c4.61,0.91,8.93,1.49,13.03,2.74c3.62,1.1,6.93,2.7,7.98-3.46c0.38,0.23,0.77,0.47,1.15,0.7
			c0.58,6.9,1.16,13.8,1.75,20.7c-0.33,0.11-0.67,0.23-1,0.34c-0.49-0.74-1.1-1.42-1.46-2.22c-4.76-10.77-11.59-15.73-21.33-15.44
			c-11.22,0.33-19.06,6.18-22.61,17.69c-3.81,12.33-2.71,24.29,4.82,35.1c6.67,9.57,19.64,12.61,29.98,7.17
			c1.11-0.58,2.17-2.36,2.22-3.62c0.23-5.83,0.14-11.67,0.08-17.5c-0.06-6.66-0.28-6.87-8.54-9.92c8.52,0,17.04,0,26.73,0
			c-1.46,0.79-1.9,1.23-2.37,1.25c-4.67,0.22-6.07,3.07-6.05,7.22c0.03,6.58,0.1,13.17-0.17,19.75c-0.06,1.38-1.22,3.36-2.42,3.95
			c-12,5.93-24.55,6.75-36.99,2.04c-22.57-8.53-27.68-38.76-9.89-56.67C562.02,407.81,570.31,404.78,580.28,404.87z"/>
		<path class="st2" d="M881.16,406.25c5.76,0.04,11.91-1.52,16.34,0.58c4.41,2.09,7.12,7.82,10.53,11.98
			c9.2,11.24,18.37,22.5,27.56,33.75c0.63,0.78,1.33,1.51,2.55,2.89c0.17-1.81,0.35-2.88,0.35-3.95c0.02-10.03,0.01-20.06,0.01-30.1
			c0-10.81,0-10.81-9.46-14.65c7.69,0,15.38,0,24.37,0c-10.63,4-10.63,4-10.63,15.08c0,15.72,0,31.44,0,47.17c0,1.45,0,2.9,0,4.35
			c-0.47,0.28-0.93,0.56-1.4,0.84c-14.45-17.59-28.9-35.18-44.13-53.74c0,7.03,0,12.92,0,18.81c0,7.64-0.04,15.27,0.03,22.91
			c0.07,6.92,0.85,7.71,7.91,8.71c0.48,0.07,0.93,0.4,1.27,1.35c-7.61,0-15.23,0-22.98,0c0.22-0.59,0.28-1.05,0.43-1.08
			c8.53-1.67,8.9-2.09,8.92-10.76c0.02-12.88,0.01-25.75,0.01-38.63c0-8.74-2.16-11.45-10.74-13.59c-0.76-0.19-1.44-0.68-2.16-1.03
			C880.21,406.85,880.5,406.56,881.16,406.25z"/>
		<path class="st2" d="M869.13,406.25c1.46,0,2.5,0,3.93,0c0.31,4.89,0.61,9.59,0.9,14.3c-0.38,0.14-0.75,0.27-1.13,0.41
			c-0.54-1.11-1.25-2.17-1.61-3.34c-1.7-5.5-3.82-7.43-9.61-7.62c-6.73-0.21-13.47-0.05-20.51-0.05c0,8.62,0,17.07,0,25.79
			c6.26,0,12.68,0.33,19.02-0.22c1.75-0.15,3.51-2.76,4.83-4.56c0.86-1.17,0.95-2.91,2.22-4.3c0,7.59,0,15.17,0,23.69
			c-0.83-1.13-1.29-1.49-1.4-1.94c-1.88-7.42-3.07-8.47-10.64-8.7c-4.6-0.14-9.22-0.03-14.23-0.03c0,8.64-0.06,16.83,0.03,25.01
			c0.03,2.86,1.69,4.34,4.62,4.32c5.4-0.04,10.8,0.05,16.19-0.1c4.85-0.13,8.5-2.56,11.2-6.49c1.49-2.16,2.92-4.36,4.38-6.54
			c0.41,0.17,0.83,0.34,1.24,0.52c-1.27,3.89-2.82,7.73-3.73,11.7c-0.87,3.78-2.8,4.73-6.54,4.67c-13.94-0.24-27.89-0.09-41.83-0.11
			c-1.52,0-3.05-0.14-4.8-0.23c0.41-0.82,0.49-1.23,0.67-1.28c9.14-2.33,9.15-2.32,9.16-11.88c0.01-13.63,0.01-27.25,0-40.88
			c0-8.26-1.07-10.2-8.62-10.44c-0.33-0.01-0.64-0.45-0.9-1.72C837.56,406.25,853.14,406.25,869.13,406.25z"/>
		<path class="st3" d="M1111.52,461.46c0.73-6.5-2.86-10.12-7.54-13c-6.49-4-13.32-7.51-19.5-11.93
			c-9.92-7.1-10.85-18.87-2.56-26.54c5.84-5.41,12.81-5.9,20.17-4.25c1.45,0.33,2.85,0.89,4.26,1.38c5.56,1.92,5.56,1.92,9.23-2.89
			c0,8.23,0,15.82,0,23.41c-0.36,0.08-0.72,0.16-1.08,0.24c-0.4-1.58-0.81-3.16-1.19-4.74c-2.12-9.02-9.61-14.8-18.54-14.29
			c-4.51,0.26-8.89,3.24-10.04,7.1c-1.38,4.63,0.4,8.34,4.23,10.85c5.11,3.36,10.45,6.38,15.69,9.55c2.56,1.55,5.21,2.97,7.62,4.72
			c6.21,4.49,9.52,10.52,7.81,18.22c-1.76,7.91-7.18,13.16-15.07,14.06c-5.73,0.65-11.83-0.46-17.57-1.65
			c-6.26-1.3-6.17-1.74-9.97,2.91c0-7.99,0-15.56,0-23.13c0.37-0.07,0.74-0.15,1.11-0.22c0.51,1.9,0.98,3.8,1.53,5.68
			c2.89,9.78,13.73,15.72,23.45,12.74C1107.49,468.46,1110.32,465.94,1111.52,461.46z"/>
		<path class="st3" d="M1380.8,412.59c1.3-2.86,2.46-5.4,4.12-9.04c1.25,2.45,2.11,3.89,2.76,5.42c6.7,15.96,13.3,31.96,20.07,47.9
			c2.63,6.2,4.32,13.34,12.61,15.32c-8.68,0-17.35,0-26.08,0c0.06-0.41,0.04-0.89,0.16-0.94c7.31-2.59,7.63-3.25,4.9-10.46
			c-3.93-10.39-3.93-10.39-14.96-10.39c-1.05,0-2.1,0-3.15,0c-12.85,0-12.85,0-17.12,12.48c-1.69,4.95-0.88,6.48,4.08,7.72
			c0.88,0.22,1.75,0.52,2.5,1.65c-6.88,0-13.77,0-20.65,0c9.18-3.39,10.25-12.27,13.48-19.45
			C1369.45,439.6,1374.97,426.21,1380.8,412.59z M1374.93,446.76c6.04,0,12.09,0,18.7,0c-3.86-9.1-7.41-17.47-11.3-26.65
			c-4.02,9.38-7.59,17.7-11.33,26.41C1372.4,446.62,1373.24,446.69,1374.93,446.76z"/>
		<path class="st3" d="M967.53,467.8c2.47,1.56,4.83,2.77,8.16,4.47c-7.9,0-14.79,0-21.67,0c8.56-3.07,9.87-11.14,12.82-17.87
			c6.66-15.16,13.08-30.42,19.62-45.64c0.61-1.43,1.39-2.79,2.62-5.26c1.23,2.6,2.02,4.11,2.68,5.68
			c6.18,14.72,12.2,29.51,18.58,44.13c3.15,7.21,4.18,16.24,13.96,18.94c-8.68,0-17.36,0-26.12,0c0.09-0.56,0.07-0.8,0.15-0.83
			c7.84-3.5,7.84-3.5,4.37-12.08c-3.62-8.96-3.62-8.96-13.19-8.96c-1.65,0-3.3-0.07-4.95,0.01c-3.83,0.19-9.7-0.97-11.07,0.99
			C970.32,455.94,969.31,462,967.53,467.8z M975.64,446.52c7.11,0,14.23,0,21.86,0c-3.68-8.72-7.25-17.16-11.19-26.48
			C982.36,429.36,978.89,437.55,975.64,446.52z"/>
		<path class="st3" d="M720.89,450.4c-3.59,0-6.78,0.32-9.88-0.08c-4.05-0.53-6.02,1.17-7.11,4.83c-0.72,2.42-1.94,4.68-2.83,7.05
			c-2.13,5.72-1.36,7.15,4.43,8.5c0.66,0.15,1.3,0.34,1.91,1.41c-6.85,0-13.7,0-20.58,0c-0.01-0.18-0.08-0.7-0.03-0.71
			c6.35-1.59,8.5-6.89,10.73-12.11c7.22-16.86,14.42-33.73,21.66-50.58c0.61-1.42,1.4-2.77,2.65-5.2c1.22,2.63,1.99,4.16,2.66,5.73
			c6.18,14.71,12.2,29.49,18.58,44.11c3.15,7.21,4.18,16.23,13.94,18.91c-8.68,0-17.36,0-26.11,0c0.1-0.56,0.08-0.8,0.15-0.83
			c7.84-3.49,7.84-3.49,4.37-12.07C731.79,450.4,731.79,450.4,720.89,450.4z M717.76,446.76c3.99,0,7.97,0,12.54,0
			c-3.79-8.98-7.33-17.37-11.26-26.68c-4.04,9.43-7.64,17.82-11.43,26.68C711.2,446.76,714.04,446.76,717.76,446.76z"/>
		<path class="st3" d="M494.9,423.93c2.87-6.68,5.62-13.04,8.94-20.69c1.36,2.86,2.16,4.37,2.81,5.93
			c6.19,14.72,12.2,29.51,18.58,44.15c3.15,7.22,4.19,16.24,13.97,18.94c-8.68,0-17.37,0-26.12,0c0.1-0.56,0.08-0.8,0.15-0.83
			c7.85-3.48,7.85-3.48,4.37-12.08c-3.62-8.95-3.62-8.95-13.2-8.95c-2.1,0-4.2-0.09-6.3,0.02c-3.38,0.17-8.46-0.8-9.77,0.97
			c-3,4.04-4.38,9.38-5.86,14.35c-0.32,1.08,1.45,3.2,2.75,4.22c1.13,0.89,2.95,0.91,4.37,2.18c-6.86,0-13.72,0-20.58,0
			c0-0.28-0.06-0.8,0-0.82c6.09-1.35,8.28-6.34,10.42-11.28C484.59,448.13,489.68,436.19,494.9,423.93z M507.16,434.03
			c-1.84-4.32-3.67-8.63-5.92-13.93c-4.01,9.36-7.61,17.77-11.3,26.38c7.85,0,14.92,0,22.38,0
			C510.6,442.3,509.03,438.47,507.16,434.03z"/>
		<path class="st5" d="M1137.06,435.7c-0.02-6.87,0.06-13.3-0.08-19.73c-0.13-6.06-1.23-7.12-7.3-7.87
			c-0.65-0.08-1.3-0.24-1.89-1.29c9.78,0,19.56,0,29.34,0c0.05,0.31,0.1,0.61,0.15,0.92c-1.31,0.15-2.62,0.29-3.93,0.44
			c-4.82,0.55-6.62,2.38-6.71,7.22c-0.1,5.68-0.02,11.36-0.02,17.84c3.71-2.97,7-5.6,10.29-8.23c0.39,0.16,0.77,0.33,1.16,0.49
			c-0.88,1.81-1.28,4.41-2.73,5.29c-7.52,4.57-10.13,10.92-8.85,19.5c0.61,4.1,0.16,8.36,0.12,12.55c-0.03,3.46,1.49,5.38,5.07,5.38
			c5.69-0.01,11.4,0.21,17.07-0.16c6.17-0.4,9.83-4.53,12.51-9.67c0.7-1.35,1.33-2.73,2-4.1c0.43,0.18,0.86,0.36,1.29,0.54
			c-1.76,5.83-3.51,11.66-5.28,17.56c-17.3,0-34.37,0-51.76,0c0.38-0.73,0.51-1.36,0.75-1.4c8.41-1.49,8.69-1.79,8.79-10.3
			c0.05-4.43,0.01-8.87,0.01-14.31c-3.71,2.88-6.68,5.18-9.65,7.49c-0.39-0.29-0.78-0.58-1.17-0.87c0.99-1.71,1.81-3.55,3.03-5.08
			c1-1.26,2.36-2.34,3.75-3.19C1136.28,442.7,1137.8,439.98,1137.06,435.7z"/>
		<path class="st1" d="M816.43,455.1c-1.56,6-3.31,11.67-5.01,17.21c-17.41,0-34.49,0-51.74,0c0.26-0.64,0.32-1.09,0.47-1.11
			c8.82-1.76,9.24-2.25,9.25-11.48c0.02-13.62,0.01-27.25,0-40.87c-0.01-7.17-0.48-10.75-8.79-10.89c-0.38-0.01-0.76-0.32-0.74-1.3
			c9.96,0,19.91,0,29.87,0c0.07,0.31,0.14,0.61,0.21,0.92c-1.56,0.27-3.12,0.58-4.68,0.82c-3.93,0.59-6.33,2.69-6.34,6.8
			c-0.06,15.87-0.08,31.73-0.05,47.6c0.01,3.81,1.92,5.7,5.92,5.55c4.34-0.16,8.7-0.14,13.04-0.03c7.5,0.19,12.38-3.53,15.68-9.93
			C814.19,457.06,815.33,455.97,816.43,455.1z"/>
		<path class="st6" d="M643.59,557.38c-0.41,1.01-0.55,1.84-1.04,2.35c-0.99,1.04-2.07,2.48-3.28,2.66
			c-0.82,0.12-2.32-1.43-2.83-2.55c-3.24-7.05-6.28-14.19-9.4-21.3c-0.52-1.17-1.11-2.31-2.16-4.47c0,13.56,0,25.98,0,38.32
			c2.67,0.32,5.22,0.63,8.25,1c-2.66,3.18-12.38,3.62-17.33,0.94c2-0.87,3.46-1.51,5.25-2.29c0-12.01,0-24.38,0-36.93
			c-1.15-0.52-2.44-1.1-3.78-1.7c2.69-3.63,9.51-3.23,11.18,0.48c3.6,8.02,7.14,16.08,11.01,24.83c3.52-8.06,6.78-15.5,10.02-22.94
			c2.27-5.2,6.6-6.41,12.71-2.88c-1.74,0.87-3.04,1.53-4.58,2.31c0,12.18,0,24.55,0,36.87c1.68,0.64,3.23,1.23,5.1,1.94
			c-3.47,2.75-13.52,2.78-17.73-0.47c3.64-0.48,6.23-0.82,9.01-1.19c0-12.3,0-24.69,0-37.07c-0.2-0.11-0.41-0.22-0.61-0.32
			C650.16,542.31,646.93,549.68,643.59,557.38z"/>
		<path class="st7" d="M742.29,558.28c0.92,1.57,1.68,2.85,2.39,4.16c2.57,4.69,2.48,11.74,11.1,10.86
			c-3.47,4.07-8.2,3.48-10.03-0.01c-3.01-5.74-6.08-11.51-9.78-16.81c-1.25-1.79-5.28-3.66-6.65-2.92c-3.14,1.68-6.72,3.96-6.05,8.9
			c0.43,3.2,0.08,6.51,0.08,9.8c2.84,0.41,5.35,0.77,8.26,1.19c-2.55,3.2-14.39,3.54-18.88,0.47c2.69-0.68,4.64-1.18,6.95-1.76
			c0-12.24,0-24.84,0-37.25c-2.12-0.46-4.13-0.9-6.65-1.45c3.18-2.89,14.39-3.19,18.33,0.09c-2.48,0.46-4.96,0.92-7.75,1.43
			c0,5.77,0,11.79,0,18.76c7.26-6.44,13.97-12.4,21-18.62c-1.86-0.63-3.37-1.15-5.12-1.74c2.98-2.98,10.76-3.13,13.5-0.98
			c-6.7,5.75-13.46,11.57-19.81,17.02C736.44,552.56,739.27,555.28,742.29,558.28z"/>
		<path class="st7" d="M1100.44,539.23c0,4.86,0,9.28,0,14.79c7.6-6.75,14.33-12.73,21.21-18.85c-1.87-0.67-3.38-1.22-5.25-1.89
			c3.7-2.98,11.49-2.91,13.45-0.98c-6.57,5.79-13.19,11.61-20.35,17.91c8.23,3.36,11.65,10.07,14.47,17.17
			c1.24,3.12,2.12,6.28,6.57,5.58c0.53-0.08,1.18,0.63,1.82,1c-3.2,3.55-7.81,2.7-9.77-1.11c-2.9-5.63-5.94-11.25-9.59-16.41
			c-1.25-1.77-5.27-3.58-6.66-2.84c-3.14,1.69-6.71,3.99-5.99,8.95c0.46,3.19,0.09,6.5,0.09,9.69c2.9,0.44,5.4,0.82,8.38,1.27
			c-2.9,3.23-14.84,3.43-18.85,0.34c2.62-0.62,4.6-1.09,6.86-1.63c0-12.21,0-24.71,0-37.32c-2.02-0.37-4.07-0.75-6.44-1.19
			c2.48-3.2,14.22-3.61,18.04,0c-2.52,0.4-5.04,0.81-7.99,1.28C1100.44,536.17,1100.44,537.48,1100.44,539.23z"/>
		<path class="st8" d="M864.09,562.15c-1.32,3.57-2.51,6.77-3.74,10.09c2.86,0.44,5.46,0.84,8.77,1.34
			c-3.77,3.3-14.37,3.23-17.3,0.15c6.75-0.48,6.65-6.18,8.32-10.39c3.3-8.31,6.24-16.76,9.31-25.15c0.39-1.08,0.68-2.2,1.04-3.37
			c-3.92-0.3-7.5-0.57-11.99-0.91c1.18-1.49,1.59-2.47,2.02-2.48c5.38-0.18,10.76-0.34,16.13-0.15c0.76,0.03,1.71,1.81,2.15,2.94
			c3.71,9.59,7.22,19.25,11.02,28.81c1.74,4.37,1.67,10.18,9.67,10.97c-2.22,1.17-3.02,1.94-3.84,1.97
			c-3.74,0.14-7.49,0.15-11.23,0.01c-0.85-0.03-1.67-0.86-2.5-1.33c0.83-0.64,1.59-1.65,2.51-1.83c1.56-0.3,3.22-0.08,5.39-0.08
			c-1.36-3.75-2.45-6.97-3.73-10.12c-0.27-0.68-1.25-1.53-1.89-1.52C877.55,561.23,870.89,561.52,864.09,562.15z M873.02,537.86
			c-2.4,6.57-4.8,13.14-7.23,19.78c6.41,0,12.15,0,18.5,0c-3.06-8.01-5.97-15.61-9.25-24.2
			C874.07,535.43,873.64,536.31,873.02,537.86z"/>
		<path class="st8" d="M1171.94,571.93c-3.43-10.93-3.43-10.93-14.42-10.93c-11.17,0-11.17,0-14.32,11.28
			c2.61,0.39,5.21,0.78,8.49,1.27c-3.66,3.31-14.28,3.27-17.24,0.25c6.83-0.68,6.69-6.52,8.41-10.86
			c3.29-8.31,6.24-16.76,9.32-25.16c0.35-0.94,0.57-1.93,0.87-2.97c-3.86-0.29-7.45-0.56-11.03-0.82c-0.07-0.53-0.14-1.06-0.21-1.58
			c1.17-0.43,2.32-1.17,3.52-1.26c14.56-0.99,14.56-0.97,19.75,12.66c2.44,6.41,4.68,12.9,7.38,19.19
			c1.83,4.29,1.28,10.46,9.01,10.63c-0.25,0.36-0.49,0.73-0.74,1.09c-0.81,0.43-1.61,1.21-2.43,1.24
			c-3.74,0.14-7.49,0.15-11.23,0.01c-0.85-0.03-1.68-0.85-2.52-1.31c0.83-0.64,1.57-1.61,2.5-1.85
			C1168.59,572.41,1170.26,572.46,1171.94,571.93z M1160.07,539.67c-0.74-1.77-1.47-3.54-2.71-6.53
			c-3.34,9.11-6.14,16.76-8.98,24.51c6.41,0,12.15,0,18.49,0C1164.57,551.62,1162.41,545.98,1160.07,539.67z"/>
		<path class="st8" d="M670.69,532.07c5.71-0.54,11.21-0.9,16.7-0.81c0.86,0.01,2.02,1.89,2.49,3.11
			c3.92,10.15,7.64,20.37,11.58,30.51c1.47,3.78,1.69,8.75,7.86,8.63c-2.64,3.2-13.22,3.47-17.61-0.01c3.5-0.46,5.91-0.78,8.95-1.17
			c-1.21-3.36-2.26-6.68-3.67-9.85c-0.34-0.76-1.85-1.39-2.85-1.41c-5.39-0.14-10.79-0.22-16.17,0.05c-1.2,0.06-2.8,1.37-3.38,2.52
			c-1.32,2.64-2.12,5.53-3.23,8.6c2.79,0.41,5.4,0.79,8.5,1.25c-3.04,3.26-13.62,3.42-17.14,0.41c7.68-1.03,7.09-7.75,9.08-12.53
			c3.48-8.39,6.37-17.02,9.49-25.56c0.09-0.25-0.05-0.58-0.12-1.32c-2.3,0-4.67,0.24-6.97-0.09
			C672.89,534.23,671.71,533.11,670.69,532.07z M682.83,557.88c3.96,0,7.93,0,12.56,0c-3.18-8.3-6.1-15.89-9.01-23.49
			c-0.38,0.07-0.75,0.13-1.13,0.2c-2.81,7.62-5.62,15.24-8.59,23.29C678.78,557.88,680.39,557.88,682.83,557.88z"/>
		<path class="st8" d="M1025.79,557.22c-4.19-1.22-8.04-2.37-11.94-3.31c-10.05-2.43-13.95-7.03-12.05-14.39
			c1.73-6.7,10.26-10.96,18.31-8.95c2.42,0.6,4.68,1.84,7.26,2.88c0.49-0.58,1.24-1.47,1.99-2.36c0.34,0.07,0.68,0.14,1.03,0.21
			c0,4.07,0,8.14,0,12.21c-0.38,0.09-0.76,0.18-1.14,0.26c-0.5-0.77-1.33-1.49-1.45-2.32c-1.22-8.75-15.41-10.34-20.88-4.36
			c-3.64,3.97-2.79,9.66,2.26,11.9c3.35,1.48,7.14,2.01,10.76,2.83c5.23,1.18,10.34,2.59,12.24,8.43c2.12,6.5-1.46,13.13-8.32,15.79
			c-6.11,2.36-13.4,1.28-20.1-3.02c-0.69,1.01-1.37,2.02-2.12,3.1c-2.43-2.95-2.57-9.86-0.21-13.54c0.63,0.93,1.51,1.65,1.63,2.48
			c1.37,9.49,16.76,11.66,23.3,5.57C1030.61,566.7,1030.51,561.97,1025.79,557.22z"/>
		<path class="st9" d="M929.58,531.1c2.21,0,3.98,0,6.94,0c-1.05,2.87-1.43,5.36-2.72,7.22c-7.83,11.26-15.86,22.39-24.16,34.03
			c8.32,0,16.13,0,24.53,0c0-2.98-0.13-6.21,0.07-9.43c0.07-1.12,0.93-2.2,1.43-3.29c0.63,1.01,1.75,2,1.8,3.05
			c0.21,4.3,0.09,8.61,0.09,13.15c-10.47,0-20.58,0-31.87,0c0.93-2.6,1.29-5.21,2.64-7.15c7.75-11.16,15.73-22.17,23.99-33.73
			c-7.2,0-13.93,0-21.02,0c-0.18,3.61-0.37,7.38-0.56,11.15c-0.69-0.03-1.38-0.05-2.07-0.08c0-4.83,0-9.66,0-14.92
			C915.15,531.1,922.15,531.1,929.58,531.1z"/>
		<path class="st10" d="M1071.52,576.06c-5.65,0-10.9,0.08-16.15-0.07c-1.12-0.03-2.22-0.92-3.34-1.41
			c1.15-0.63,2.25-1.64,3.47-1.82c2.03-0.3,4.13-0.08,6.44-0.08c0-12.77,0-25.26,0-37.95c-4.11,0-8.1,0-12.4,0
			c-0.25,4.23-0.51,8.52-0.77,12.81c-0.64,0.01-1.28,0.02-1.93,0.03c-2.35-5.03-0.29-10.6-1.19-16.16c12.21,0,24.11,0,36.31,0
			c0,4.59,0.07,9.22-0.07,13.84c-0.02,0.78-0.98,1.53-1.5,2.29c-0.51-0.78-1.43-1.55-1.47-2.35c-0.17-3.41-0.07-6.83-0.07-10.45
			c-4.5,0-8.64,0-13,0c0,12.57,0,25.07,0,37.58c3.47,0.35,6.82,0.69,10.17,1.03c0.02,0.59,0.03,1.17,0.05,1.76
			C1074.69,575.43,1073.31,575.75,1071.52,576.06z"/>
		<path class="st10" d="M979.86,542.6c-0.76,1.14-1.21,2.12-1.91,2.88c-7.12,7.7-7.85,16.92-6.33,26.89
			c3.22,0.28,6.62,0.58,10.59,0.94c-2.95,3.49-21.58,3.71-25.34,0.44c2.13-0.42,3.7-0.87,5.29-1.02c1.74-0.16,3.51-0.04,5.2-0.04
			c2.22-15.92-3.25-28.22-17.5-39.9c2.74-2.31,9.52-2.44,13.58,0.23c-1.93,0.79-3.42,1.4-5.29,2.17
			c3.71,5.59,7.47,11.25,11.44,17.23c3.92-6.05,7.55-11.66,11.28-17.42c-1.52-0.38-2.79-0.46-3.73-1.06
			c-0.4-0.25-0.47-1.97-0.06-2.38c1.38-1.34,10.24-0.26,11.19,0.59C985.49,535.61,982.77,538.97,979.86,542.6z"/>
		<path class="st8" d="M824.21,534.45c-2.27-0.86-3.53-2.84-0.79-2.98c8.47-0.43,16.99,0.03,25.49,0.2
			c0.25,0.01,0.49,0.64,1.47,2.04c-3.82,0.46-7,0.84-10.51,1.26c0,8.6,0.02,17.24-0.01,25.88c-0.03,7.97-3.3,13.19-9.68,15.54
			c-5.98,2.2-14.96-0.43-19.19-5.62c-1.5-1.83-1.11-11.62,1.73-14.7c0.29,1.77,0.8,3.54,0.82,5.32c0.11,8.2,3.74,12.38,11.17,12.65
			c6.89,0.25,11.78-4.89,11.9-12.83c0.13-8.67,0.03-17.35,0.03-26.71C832.53,534.49,828.56,534.49,824.21,534.45z"/>
		<path class="st11" d="M793.73,572.94c2.36,1.62,1.55,2.97-0.33,3c-8.82,0.14-17.64-0.01-26.47-0.11
			c-0.54-0.01-1.07-0.47-1.61-0.73c0.13-0.6,0.27-1.2,0.4-1.8c4.18-0.31,8.37-0.63,12.8-0.96c0-12.44,0-24.89,0-37.52
			c-4.32-0.26-8.55-0.52-13.84-0.83c3.82-3.56,27.22-3.75,30.95-1c-4.18,3.05-8.84,0.69-13.21,1.88c0,12.31,0,24.79,0,37.96
			C786.05,572.81,789.72,572.81,793.73,572.94z"/>
		<path class="st8" d="M922.33,525.74c-3.55-0.34-5.21-2.28-3.89-5.13c0.58-1.25,3.24-1.85,5.03-2.05c0.67-0.07,2.39,2.12,2.17,2.82
			C925.13,522.98,923.73,524.29,922.33,525.74z"/>
		<path class="st12" d="M909.49,332.15c8.75-11.46,20.48-18.49,33.17-23.55c14.96-5.96,30.4-10.72,45.67-15.88
			c2.34-0.79,4.89-0.96,8.09-1.56c-0.25,2.55-0.08,4.5-0.66,6.21c-10.8,32.15-32.56,53.35-64.79,63.65
			c-4.41,1.41-9.51,1.31-14.22,0.99c-10.52-0.71-15.19-8.83-11.82-20.35C905.87,338.43,907.8,335.48,909.49,332.15z"/>
		<path class="st0" d="M719.43,244.74c-0.17,0.56-0.52,0.93-1.27,1.73c0.14-1.03,0.2-1.51,0.49-2.13
			C719.01,244.32,719.13,244.44,719.43,244.74z"/>
		<path class="st0" d="M707.71,218.69c0.34-0.11,0.69-0.21,1.03-0.32c0.02,0.23,0.03,0.46-0.33,0.64
			C708.03,218.95,707.71,218.69,707.71,218.69z"/>
		<path class="st0" d="M708.17,219.1c0.08,0.46,0.01,0.77-0.27,1.2c-0.33-0.08-0.45-0.28-0.69-0.81c0-0.47,0.13-0.58,0.39-0.73
			C707.71,218.69,708.03,218.95,708.17,219.1z"/>
		<path class="st12" d="M633.6,452c0-13.62,0-26.78,0-39.88c10.18-4.42,23.06-1.27,29.66,6.34c8.2,9.47,9.53,27.31,2.84,38.42
			c-6.44,10.69-17.56,14.42-32.49,10.68C633.6,462.58,633.6,457.52,633.6,452z"/>
		<path class="st12" d="M1203.43,430.08c0.93-3.4,1.49-6.54,2.73-9.38c3.31-7.64,8.98-12.21,17.64-12.23
			c8.56-0.03,14.81,4.03,17.91,11.83c4.8,12.07,5.1,24.55,0.96,36.89c-2.79,8.33-10.42,13.5-18.79,13.55
			c-8.01,0.04-14.49-4.82-17.89-13.3C1202.49,448.68,1202.51,439.63,1203.43,430.08z"/>
		<path class="st13" d="M1374.5,446.76c-1.27-0.07-2.11-0.13-3.5-0.24c3.74-8.71,7.31-17.03,11.33-26.41
			c3.89,9.18,7.44,17.55,11.3,26.65C1387.02,446.76,1380.97,446.76,1374.5,446.76z"/>
		<path class="st13" d="M975.53,446.14c3.36-8.58,6.83-16.78,10.78-26.1c3.94,9.33,7.51,17.77,11.19,26.48
			C989.87,446.52,982.75,446.52,975.53,446.14z"/>
		<path class="st13" d="M717.32,446.76c-3.28,0-6.12,0-9.7,0c3.8-8.86,7.39-17.25,11.43-26.68c3.93,9.31,7.47,17.7,11.26,26.68
			C725.73,446.76,721.75,446.76,717.32,446.76z"/>
		<path class="st13" d="M507.31,434.34c1.72,4.13,3.29,7.96,5.01,12.15c-7.46,0-14.54,0-22.38,0c3.69-8.61,7.29-17.02,11.3-26.38
			C503.49,425.4,505.33,429.71,507.31,434.34z"/>
		<path class="st14" d="M873.11,537.53c0.53-1.22,0.96-2.1,1.92-4.08c3.28,8.59,6.19,16.19,9.25,24.2c-6.35,0-12.09,0-18.5,0
			C868.21,551,870.62,544.43,873.11,537.53z"/>
		<path class="st14" d="M1160.17,540.01c2.25,5.98,4.4,11.62,6.7,17.65c-6.34,0-12.09,0-18.49,0c2.84-7.75,5.64-15.4,8.98-24.51
			C1158.6,536.13,1159.34,537.9,1160.17,540.01z"/>
		<path class="st14" d="M682.41,557.88c-2.02,0-3.62,0-5.75,0c2.97-8.05,5.78-15.67,8.59-23.29c0.38-0.07,0.75-0.13,1.13-0.2
			c2.91,7.6,5.83,15.19,9.01,23.49C690.75,557.88,686.79,557.88,682.41,557.88z"/>
	</g>
</g>
</svg>
